<svg fill="none" height="47" viewBox="0 0 100 47" width="100" xmlns="http://www.w3.org/2000/svg"><g fill="#fff"><path clip-rule="evenodd" d="m84.4132 44.0615c-15.04-5.826-45.9837-5.1105-67.7053-2.5297-3.0233.3577-4.5984 4.5739-1.9816 5.4682 16.92-5.4171 51.5729-5.366 63.7675-2.8363 3.4043.5877 5.3097.9965 5.9194-.1022zm-14.9891-20.5186c1.2957.2555 2.6676.0511 4.0649-.4855l.5081.1533-1.5752.5622 1.0925.2811-1.5244.511 1.0417.3322-1.2195.4344c-.3049.1533-.6097.3066-.9146.4088 1.0162 4.4206-5.513 11.2431-10.2384 11.0642-1.5243-.0767-2.8454-2.3508-2.8708-3.0152-.3811-1.2776-.4319-3.0918.3811-5.596.8638-2.6319 2.1086-5.4171 3.5822-8.1767-5.5638.8177-11.9406.4855-16.2087-1.2521-2.6421-1.7631-2.8454-5.1105-1.1686-5.5449 4.2681 4.1395 12.1183 5.5705 18.3935 4.9827 1.9816-3.5262 4.2427-6.9247 6.3259-9.73542.5844-.10221 1.3465.20442 2.0071.71547l.0508.05111c.3302.25552.6097.56215.8383.89434 3.1757 3.7817.5082 6.7458-4.3951 8.4834-3.4043 5.5193-6.5546 11.473-7.2151 15.2548 3.0232-.6899 6.9356-4.3184 7.8502-7.4869-.5589-.0255-.9654-.2044-1.2194-.4599-.6606-.6644-.7114-2.6319.5081-3.0919.0254-.1022.2286-.1788.3811-.1022.5843.23 1.1178.4855 1.5243.8177zm-.7622-6.7203c2.5914-1.0987 4.0141-2.7852 3.2773-4.906-1.0416 1.5076-2.1594 3.1685-3.2773 4.906zm17.9616-5.5704c-.0254-.1278-.0508-.2555-.1016-.3833-.0254-.4088-.1271-.5621-.2541-.5621-.6859-1.1499-2.1086-2.01868-3.0486-1.86537-4.0903 5.49377-8.7648 13.15947-10.9243 19.77757-1.7784 5.5193.5589 7.7679 1.6005 7.9468.2033.1533.4573.2555.7114.2811.9908-1.2521 3.6329-5.4682 5.9448-7.308.2541-.2044.4065-.4344.4573-.6644l-.7113.2555.6605-.8176c-.0254-.0256-.0254-.0511-.0508-.0511-1.7022.971-4.1156 2.7085-6.0464 4.4461 1.5751-5.2383 6.3004-13.134 10.3653-19.0621-.2032 2.7085-1.4227 4.8294-3.2011 6.3625h.0508l-.4827.3578c-.1016.0766-.2286.1788-.3556.2555l-.4065.3066.9146.0256-1.2195.8943h.94l-1.2702.971.8891.0255c3.0741-1.993 5.1573-5.3404 5.4368-11.0386zm-64.7837 14.386c-1.0416 1.2521-1.9308 3.7306-2.3119 6.0304 2.5151-1.6865 4.5222-4.0373 6.5038-7.308.3048-.6644.5843-1.2776.8384-1.7631 1.2448-.1023 3.5313 2.223 3.5313 3.0151-1.067 1.2521-1.9308 3.7562-2.3119 6.056.7622-.69 1.6006-1.3799 2.4389-2.0187l.813-.2811-1.0416 1.3288 1.0416-.4089-1.0162 1.2521.6351-.23c-1.2702 1.6098-2.3881 3.3218-2.947 4.0373l-.0254.0256c-.1524 0-.2795-.0511-.4065-.1022-1.4735-.4344-3.3027-2.2998-3.4043-3.0919-.0508-.4088-.0762-.8432-.0254-1.2776-1.6768 1.8142-3.3535 3.4751-4.7 4.395v.0511h-.1016c-1.5244-.23-3.6076-2.3253-3.7092-3.1685-.4065-2.9385 1.6259-7.4102 2.6929-9.5821 1.2195-.0767 3.5314 2.2486 3.506 3.0407zm34.6784 4.0628c-.8384.6388-1.7022 1.3288-2.439 2.0187.3811-2.3253 1.2703-4.8294 2.3119-6.0815 0-.7921-2.2865-3.1174-3.5313-3.0152l-.127.23h-.0255c-2.947 2.223-5.7162 5.4427-7.7994 8.0745.4319-2.0697 1.2448-4.1905 2.1849-5.3149 0-.7921-2.2865-3.1174-3.5314-3.0151l-.127.2299h-.0254c-2.8962 2.1975-5.6146 5.3405-7.6979 7.9468.4319-2.0442 1.2195-4.0884 2.1595-5.1871 0-.7921-2.2865-3.1174-3.5314-3.0152-1.067 2.172-3.0994 6.6181-2.6929 9.5822.1016.8432 2.134 2.8618 3.6329 3.1429l.0509.0256c.0508 0 .1016.0255.1524.0255 0-.0511-.0254-.1022-.0254-.1789 1.6513-1.993 3.4805-4.3183 5.6654-6.1581-.2541 1.1243-.3811 2.2231-.2541 3.143.1271.8688 2.3119 3.0407 3.8362 3.194l-.0254-.1022c1.6768-2.0187 3.5314-4.3695 5.7417-6.2348-.2541 1.1243-.3811 2.2231-.2541 3.143.1016.7921 1.9562 2.7085 3.4551 3.1174.1271.0511.2541.0766.3811.0766.5589-.7155 1.6768-2.453 2.9725-4.0628l-.6352.23 1.0162-1.2521-1.0416.4088 1.0416-1.3287zm33.4588-8.56c.5589 3.2962-.9654 5.4682-3.9378 5.9537 1.0416-2.1464 2.4389-4.1906 3.9378-5.9537zm-4.2173 6.5669c-.8892 1.9931-1.4227 4.0373-1.4227 6.0048 6.3006.1789 13.287-6.7969 13.5665-14.5904.5843-1.1498 1.8292 2.3509 1.9308 2.9386.2037.9965.2287 2.0697.0254 3.0663-1.2703 5.5448-8.4854 12.2651-14.4302 11.6007-.1271-.0255-.3811-.1277-.686-.3322v.0512c-7.8249-4.1395-1.4735-14.0283 3.6075-19.4199.0254 0 .0509-.0255.0763-.0255l-.0254-.0511c.1016 0 .2032 0 .3302.0255.686.0256 1.4989.5111 2.1341 1.0988 1.3465.971 2.6167 2.3508 2.6167 3.1429.7368 5.2383-2.6929 8.3557-7.7232 6.4903z" fill-rule="evenodd"/><path d="m15.1544 14.6328c5.4039.5208 17.7885-.6981 20.2383-5.75771-3.1518-5.81237-22.3903-4.96121-30.06863-.88713-4.18174 2.19464-3.60266 4.97394.04142 7.52704-3.17954.5374-9.17212-5.5025-1.95379-10.76387 9.4467-6.8857 35.2362-7.0544 33.6873 4.6215-.9013 6.79727-10.5947 9.22927-21.4227 8.89897-1.0892 6.5088-6.15911 15.6828-11.96133 17.9635l.89478-1.1892-1.00469.2727.94906-1.0909-.94906.371c4.74533-6.1364 6.23672-10.3637 5.9169-20.872 0 0 2.63354.617 5.63244.9061z"/></g></svg>